# xmcd
#
# Track frame offsets:
#	150
#	11110
#	23768
#	38133
#	58998
#	81413
#	101598
#	125485
#	138505
#	161629
#	183587
#	198098
#	220678
#	238838
#	263344
#
# Disc length: 4122 seconds
#
# Revision: 1
# Processed by: cddbd v1.5.1PL0 Copyright (c) Steve Scherf et al.
# Submitted via: audiograbber 1.80
#
DISCID=d010180f
DTITLE=Terje Sending - So Far
DYEAR=1900
DGENRE=
TTITLE0=Ashes Of Love
TTITLE1=Desperate Dreams
TTITLE2=You Don't Know Me
TTITLE3=Livin' On Dreams
TTITLE4=We Won't Dance
TTITLE5=Bye,Bye Friend
TTITLE6=That's The Way I Feel Today
TTITLE7=Runnin' On Empty
TTITLE8=Heart In Anger
TTITLE9=Make This Last
TTITLE10=Desiree
TTITLE11=Wonderland
TTITLE12=Amy's Back In Austin
TTITLE13=A Kind Of A Happiness
TTITLE14=Lord,Take Me Out Of Here
EXTD=Limited Edition
EXTT0=
EXTT1=
EXTT2=
EXTT3=
EXTT4=
EXTT5=
EXTT6=
EXTT7=
EXTT8=
EXTT9=
EXTT10=
EXTT11=
EXTT12=
EXTT13=
EXTT14=
PLAYORDER=
